<svg width="40" height="35" viewBox="0 0 40 35" fill="none" xmlns="http://www.w3.org/2000/svg">
<path d="M35.1268 20.3764L35.1268 20.3764C35.0605 20.668 34.8013 20.875 34.5021 20.875H14.4629H13.2377L13.4832 22.0754L13.9306 24.2629L14.0942 25.0625H14.9103H33.2592C33.6703 25.0625 33.975 25.4442 33.8839 25.8451L33.5068 27.5046L33.3308 28.279L34.0452 28.6258C34.9916 29.0853 35.6406 30.0538 35.6406 31.1719C35.6406 32.7338 34.3744 34 32.8125 34C31.2506 34 29.9844 32.7338 29.9844 31.1719C29.9844 30.3806 30.3086 29.6667 30.8342 29.1518L32.5841 27.4375H30.1344H15.803H13.3532L15.1033 29.1519C15.6289 29.6668 15.9531 30.3806 15.9531 31.1719C15.9531 32.7338 14.6869 34 13.125 34C11.5631 34 10.2969 32.7338 10.2969 31.1719C10.2969 30.1244 10.8666 29.2088 11.7184 28.7189L12.3443 28.3589L12.1996 27.6516L7.3975 4.1746L7.23394 3.375H6.41778H1.64062C1.28681 3.375 1 3.08819 1 2.73438V1.64062C1 1.28681 1.28681 1 1.64062 1H8.64944C8.95381 1 9.21611 1.21414 9.27705 1.51216L9.27706 1.51222L9.90364 4.5754L10.0672 5.375H10.8834H37.7337C38.1447 5.375 38.4495 5.75672 38.3584 6.15761L35.1268 20.3764Z" stroke="#262626" stroke-width="2"/>
</svg>
