<svg width="31" height="35" viewBox="0 0 31 35" fill="none" xmlns="http://www.w3.org/2000/svg">
<path d="M23.0625 8.75C23.0625 13.0307 19.5932 16.5 15.3125 16.5C11.0318 16.5 7.5625 13.0307 7.5625 8.75C7.5625 4.46928 11.0318 1 15.3125 1C19.5932 1 23.0625 4.46928 23.0625 8.75ZM15.3125 21.7812C17.1608 21.7812 18.9199 21.3857 20.5101 20.6875H21.4375C25.9575 20.6875 29.625 24.355 29.625 28.875V31.7188C29.625 32.978 28.603 34 27.3438 34H3.28125C2.02201 34 1 32.978 1 31.7188V28.875C1 24.355 4.66752 20.6875 9.1875 20.6875H10.1157C11.7101 21.3851 13.4629 21.7812 15.3125 21.7812Z" stroke="#262626" stroke-width="2"/>
</svg>
