<svg width="26" height="26" viewBox="0 0 26 26" fill="none" xmlns="http://www.w3.org/2000/svg">
<path d="M0.353594 22.4787L5.41685 17.4163C5.64539 17.1878 5.95518 17.0608 6.2802 17.0608H7.10799C5.70633 15.2684 4.87346 13.014 4.87346 10.5615C4.87346 4.72727 9.60154 0 15.4367 0C21.2719 0 26 4.72727 26 10.5615C26 16.3957 21.2719 21.1229 15.4367 21.1229C12.9838 21.1229 10.729 20.2902 8.93625 18.8888V19.7164C8.93625 20.0414 8.80929 20.3511 8.58076 20.5796L3.5175 25.642C3.04012 26.1193 2.26818 26.1193 1.79589 25.642L0.358671 24.2051C-0.118708 23.7278 -0.118706 22.956 0.353594 22.4787ZM15.4367 17.0608C19.0272 17.0608 21.9372 14.1564 21.9372 10.5615C21.9372 6.97159 19.0323 4.0621 15.4367 4.0621C11.8462 4.0621 8.93625 6.96651 8.93625 10.5615C8.93625 14.1514 11.8412 17.0608 15.4367 17.0608Z" fill="#262626"/>
</svg>
